<?xml version="1.0" encoding="UTF-8"?>
<svg width="88px" height="122px" viewBox="0 0 88 122" version="1.1" xmlns="http://www.w3.org/2000/svg" xmlns:xlink="http://www.w3.org/1999/xlink">
    <title>LiveConnect</title>
    <g id="Video-Chat" stroke="none" stroke-width="1" fill="none" fill-rule="evenodd">
        <g id="Video-Chat-/-Link-Expired-/-Associate" transform="translate(-143.000000, -71.000000)">
            <g id="LiveConnect" transform="translate(143.000000, 71.000000)">
                <polygon id="Path" points="0 0 88 0 88 122 0 122"></polygon>
                <path d="M75.0011868,61 C74.4645962,61 73.9368022,60.7956226 73.5376056,60.4090917 L66.6343947,53.725285 L65.2173096,53.725285 C64.0607704,53.725285 63.1228888,52.7952016 63.1228888,51.6482786 C63.1228888,50.501148 64.0607704,49.5712722 65.2173096,49.5712722 L67.4872428,49.5712722 C68.0338867,49.5712722 68.5591674,49.7831268 68.9504052,50.1619728 L72.9063472,53.9923881 L72.9063472,52.168361 C72.9063472,50.7362651 74.0865533,49.5712722 75.5371491,49.5712722 C80.0994259,49.5712722 83.8111584,45.8901937 83.8111584,41.3658506 L83.8111584,36.3594344 C83.8111584,31.8350913 80.0994259,28.1540128 75.5371491,28.1540128 L61.4632698,28.1540128 C56.9007835,28.1540128 53.1888416,31.8350913 53.1888416,36.3594344 C53.1888416,37.506565 52.2511694,38.4364408 51.0944208,38.4364408 C49.9378816,38.4364408 49,37.506565 49,36.3594344 C49,29.5445686 54.5910563,24 61.4632698,24 L75.5371491,24 C82.4091532,24 88,29.5445686 88,36.3594344 L88,41.3658506 C88,47.6575185 83.2347738,52.8664429 77.0951887,53.6291196 L77.0951887,58.9229936 C77.0951887,59.7583656 76.5904333,60.5127343 75.8138221,60.8371627 C75.5513912,60.9466209 75.2751371,61 75.0011868,61" id="Fill-3" fill="#FF71B2"></path>
                <path d="M18.4143015,45.2077289 C10.5538869,45.2077289 4.15883947,51.6777433 4.15883947,59.6305614 L4.15883947,67.6770014 C4.15883947,75.6298195 10.5538869,82.0998339 18.4143015,82.0998339 C20.0266835,82.0998339 21.3385894,83.4187465 21.3385894,85.0399845 L21.3385894,90.9017717 L29.643168,82.6983833 C30.0316037,82.3146385 30.5531221,82.0998339 31.0958507,82.0998339 L40.5859065,82.0998339 C48.446321,82.0998339 54.8411605,75.6298195 54.8411605,67.6770014 L54.8411605,59.6305614 C54.8411605,51.6777433 48.446321,45.2077289 40.5859065,45.2077289 L18.4143015,45.2077289 Z M19.2587538,98 C18.9865578,98 18.7124903,97.9459307 18.451939,97.835057 C17.6808901,97.5064334 17.17975,96.7425202 17.17975,95.8961355 L17.17975,86.2661167 C7.59903148,85.621703 0,77.5304507 0,67.6770014 L0,59.6305614 C0,49.3576016 8.26070284,41 18.4143015,41 L40.5859065,41 C50.7395051,41 59,49.3576016 59,59.6305614 L59,67.6770014 C59,77.9499612 50.7395051,86.3075628 40.5859065,86.3075628 L31.9427983,86.3075628 L20.7118523,97.4014506 C20.3155149,97.7929797 19.7912932,98 19.2587538,98 L19.2587538,98 Z" id="Fill-5" fill="#201496"></path>
            </g>
        </g>
    </g>
</svg>