<svg xmlns="http://www.w3.org/2000/svg" viewBox="0 0 41 41" width="41" height="41">
	<style>
		tspan { white-space:pre }
		.shp0 { fill: none } 
		.shp1 { fill: none;stroke: #ffffff;stroke-linecap:round;stroke-linejoin:round;stroke-width: 1.51 } 
	</style>
	<g id="Layer">
		<path id="Layer" fill-rule="evenodd" class="shp0" d="M40.37 41.53L2.17 41.57L2.13 3.28L40.33 3.24L40.37 41.53Z" />
		<path id="Layer" fill-rule="evenodd" class="shp1" d="M21.1 19.82C23.73 19.82 26.2 20.3 28.36 21.14C28.81 21.31 29.1 21.77 29.1 22.26L29.1 24.1C29.11 25.62 30.18 26.69 31.49 26.68L34.14 26.68C35.89 26.68 37.32 25.25 37.32 23.49L37.31 22.02C37.31 20.34 36.45 18.79 35.04 17.82C31.54 15.44 26.61 13.93 21.09 13.93C15.58 13.94 10.66 15.46 7.16 17.86C5.74 18.83 4.89 20.38 4.89 22.05L4.89 23.52C4.9 25.29 6.32 26.71 8.08 26.71L10.72 26.71C12.04 26.7 13.11 25.63 13.1 24.31L13.1 22.27C13.1 21.78 13.39 21.33 13.84 21.15C16 20.31 18.47 19.83 21.1 19.82L21.1 19.82Z" />
	</g>
</svg>